<?xml version="1.0" encoding="UTF-8" standalone="no"?>
<!-- Generator: Adobe Illustrator 16.0.0, SVG Export Plug-In . SVG Version: 6.00 Build 0)  -->

<svg
   xmlns:dc="http://purl.org/dc/elements/1.1/"
   xmlns:cc="http://creativecommons.org/ns#"
   xmlns:rdf="http://www.w3.org/1999/02/22-rdf-syntax-ns#"
   xmlns:svg="http://www.w3.org/2000/svg"
   xmlns="http://www.w3.org/2000/svg"
   xmlns:sodipodi="http://sodipodi.sourceforge.net/DTD/sodipodi-0.dtd"
   xmlns:inkscape="http://www.inkscape.org/namespaces/inkscape"
   version="1.1"
   id="Layer_1"
   x="0px"
   y="0px"
   width="19.741989"
   height="17.999998"
   viewBox="0 0 19.741989 17.999998"
   enable-background="new 0 0 24 24"
   xml:space="preserve"
   inkscape:version="0.91 r13725"
   sodipodi:docname="atom.svg"><metadata
     id="metadata9"><rdf:RDF><cc:Work
         rdf:about=""><dc:format>image/svg+xml</dc:format><dc:type
           rdf:resource="http://purl.org/dc/dcmitype/StillImage" /><dc:title></dc:title></cc:Work></rdf:RDF></metadata><defs
     id="defs7" /><sodipodi:namedview
     pagecolor="#ffffff"
     bordercolor="#666666"
     borderopacity="1"
     objecttolerance="10"
     gridtolerance="10"
     guidetolerance="10"
     inkscape:pageopacity="0"
     inkscape:pageshadow="2"
     inkscape:window-width="1280"
     inkscape:window-height="973"
     id="namedview5"
     showgrid="false"
     inkscape:zoom="9.8333333"
     inkscape:cx="12.000196"
     inkscape:cy="10.941981"
     inkscape:window-x="0"
     inkscape:window-y="25"
     inkscape:window-maximized="1"
     inkscape:current-layer="Layer_1"
     fit-margin-top="0"
     fit-margin-left="0"
     fit-margin-right="0"
     fit-margin-bottom="0" /><path
     d="M 5.8690818,0.04613654 C 4.7257322,0.29537034 4.1203328,1.6205041 4.2494737,3.581472 4.2889567,4.1490341 4.2823757,4.093923 4.400001,4.8194153 4.450177,5.1114217 4.483079,5.3581879 4.476498,5.3655908 4.469088,5.3754608 4.2692145,5.4248148 4.0347867,5.4799258 2.4809833,5.8377366 1.3376337,6.3765092 0.65080145,7.0740348 0.18770375,7.5404227 -0.00641891,7.9739086 1.6151405e-4,8.5225504 0.00427429,8.8310094 0.10627094,9.1699004 0.29216806,9.4948094 0.45256602,9.7744774 1.0283535,10.342862 1.4059057,10.598676 c 0.7921192,0.533838 1.0364176,0.608689 1.2511041,0.391535 0.092126,-0.0913 0.1126899,-0.137366 0.1126899,-0.246765 0,-0.209751 -0.072385,-0.311748 -0.3191509,-0.447469 C 1.3656006,9.6946904 0.797216,9.0711944 0.797216,8.4731984 c 0,-0.217155 0.0756749,-0.413744 0.2566368,-0.6506398 C 1.5309339,7.1883697 2.6816865,6.6199851 4.2223294,6.2555939 4.630316,6.1601777 4.7092812,6.1535973 4.7092812,6.2226917 c 0,0.088014 0.3281988,1.1400594 0.5387726,1.7150241 L 5.4586275,8.5159704 5.1987006,9.0127934 C 5.0572213,9.2858814 4.8548732,9.6988024 4.7487637,9.9365214 3.2402004,13.258814 2.990144,15.896744 4.0816727,16.98087 c 0.2558142,0.255814 0.4655654,0.375085 0.8093929,0.463097 0.7954093,0.204817 1.848278,-0.101174 3.0269973,-0.880955 0.4112765,-0.272265 0.5025799,-0.374261 0.5025799,-0.5544 0,-0.216332 -0.2368951,-0.426906 -0.4474689,-0.394004 -0.059225,0.0107 -0.2895387,0.138189 -0.5091607,0.282958 -0.4869517,0.32491 -1.0314822,0.59553 -1.4271305,0.712332 -0.4030513,0.11927 -0.8406498,0.125028 -1.0890611,0.01645 C 4.1803791,16.287456 4.0043527,14.921194 4.4806113,13.026031 4.7035232,12.124512 5.2176193,10.77141 5.6798945,9.8476834 l 0.184252,-0.370972 0.1019967,0.230315 c 0.1900098,0.4400656 0.9327758,1.8754216 1.221492,2.3656646 1.6006892,2.719362 3.4037268,4.714877 5.0052388,5.529206 1.133478,0.578254 2.069545,0.526433 2.706201,-0.154641 0.469679,-0.496 0.700816,-1.219025 0.738653,-2.30315 0.06169,-1.866375 -0.545353,-4.293731 -1.733942,-6.8962896 -0.15793,-0.3487622 -0.31586,-0.6638002 -0.345473,-0.6967023 -0.07321,-0.078965 -0.256637,-0.1316086 -0.380842,-0.1052869 -0.125029,0.025499 -0.277201,0.1776716 -0.29941,0.3051674 -0.0255,0.1217376 0.0041,0.2039934 0.296119,0.8373598 0.814328,1.7586186 1.386003,3.6044286 1.606447,5.1911346 0.07239,0.522321 0.08472,1.656623 0.01974,2.005386 -0.0658,0.352053 -0.194124,0.715621 -0.332311,0.926195 -0.219623,0.338893 -0.472969,0.476259 -0.890004,0.473791 -1.238766,-0.0033 -3.190685,-1.705154 -4.925451,-4.287973 C 7.8539037,11.703366 7.1185408,10.356023 6.5501561,9.0391144 L 6.3453404,8.5702594 6.631589,8.0874204 C 6.9992705,7.4614576 7.3866932,6.870864 7.820179,6.2621743 l 0.3454726,-0.482839 0.532192,0 c 3.6529604,0 7.2812444,0.8283115 9.1336354,2.0802381 0.425261,0.285426 0.831602,0.703283 0.973904,0.991999 0.09706,0.203993 0.111045,0.259927 0.111045,0.493532 -0.0025,0.219623 -0.01645,0.288717 -0.0913,0.432664 -0.226202,0.4408876 -0.80199,0.8776636 -1.599867,1.2256036 -0.375085,0.160398 -0.492709,0.273089 -0.492709,0.463099 0,0.176849 0.07239,0.305167 0.210573,0.370971 0.150527,0.07239 0.203171,0.06663 0.446647,-0.0329 C 18.537234,11.341445 19.3639,10.65708 19.62465,9.9612004 20.104195,8.6796594 19.099034,7.38496 16.88143,6.4184596 14.943493,5.5712293 12.094168,5.0415047 9.1296843,4.9789907 L 8.8039528,4.9715837 9.1749246,4.5446784 C 9.6026523,4.047856 10.545299,3.1052095 10.949173,2.76714 11.90827,1.9593923 12.767016,1.4461188 13.505669,1.2363676 c 0.36357,-0.1052867 0.815151,-0.1019966 1.047934,0.00329 0.31586,0.1414792 0.53466,0.4598075 0.65722,0.9525171 0.07568,0.298587 0.07568,1.2124441 0,1.6525103 -0.08554,0.4861291 -0.07568,0.5716748 0.05593,0.7024609 0.09542,0.095416 0.1349,0.1110446 0.273088,0.1110446 0.292007,0 0.366859,-0.108577 0.456518,-0.6399467 0.04606,-0.2730878 0.06169,-0.5321921 0.06169,-1.0676746 0,-0.6234957 -0.01069,-0.742766 -0.07485,-1.0018703 C 15.775918,1.1302621 15.27087,0.56599054 14.593085,0.40476994 13.022831,0.03708854 10.620974,1.5481194 8.2322781,4.4138962 8.035688,4.6475016 7.851436,4.8769941 7.8210016,4.9164766 7.7716484,4.9888612 7.7387462,4.9946192 7.2624877,5.0250537 6.9852871,5.0415047 6.4802391,5.0875677 6.1347667,5.1270503 5.221732,5.2323371 5.2941168,5.2413853 5.2414733,5.0053123 5.1032844,4.3448018 5.0572213,3.8808816 5.0547537,3.1660824 5.0514635,2.3904143 5.0777852,2.1600993 5.2184418,1.7299038 5.3689691,1.2733865 5.625606,0.96410634 5.9513372,0.85635184 6.1084449,0.80041824 6.4966902,0.80699874 6.7261827,0.86622254 7.1103153,0.96821914 7.6523781,1.2577579 8.1450877,1.6279072 8.4370939,1.8483515 8.5399131,1.8870115 8.694553,1.8351906 8.8714022,1.7792569 8.9766893,1.6311974 8.9766893,1.4469454 8.9766893,1.3095788 8.9635322,1.2824346 8.819581,1.1442456 8.6155879,0.94765524 8.0249949,0.55282954 7.6663615,0.37515794 6.9893998,0.03708854 6.3979838,-0.07066606 5.8657916,0.04449144 l 0.00329,0.00165 z M 7.1020896,5.8681711 C 7.0987995,5.8837996 6.884113,6.2070633 6.6324115,6.5879055 6.3790651,6.968748 6.1298313,7.353703 6.0763653,7.4425388 L 5.9817716,7.6037593 5.9028065,7.3898954 C 5.8041001,7.130791 5.4989327,6.1248079 5.4989327,6.0622938 c 0,-0.059224 0.1447694,-0.082255 1.2157342,-0.1941227 0.2237346,-0.023031 0.3997611,-0.023031 0.3874227,0 l 0,0 z m 2.499741,2.0308849 c -0.2327832,0.075677 -0.4606308,0.2434764 -0.5947065,0.4433564 -0.4038739,0.595528 -0.2072839,1.370374 0.4277277,1.6821216 0.1965906,0.09871 0.2459439,0.107754 0.5157404,0.107754 0.2689758,0 0.3191508,-0.0099 0.5157418,-0.107754 0.8571,-0.4211476 0.838182,-1.6689616 -0.03289,-2.0703672 C 10.203124,7.8488806 9.8313296,7.8258492 9.6018369,7.8990526 l 0,0 z"
     id="path3"
     style="fill:#ffffff"
     inkscape:connector-curvature="0" /></svg>